<?xml version="1.0" encoding="UTF-8" standalone="no"?>
<svg width="512" height="512" viewBox="0 0 512 512" version="1.1" id="svg1" xml:space="preserve" xmlns="http://www.w3.org/2000/svg"><defs
   id="defs1" />
    <path
        d="m 169.2727,282.62752 q 0,6.98634 4.81822,10.84096 4.81813,3.85452 15.89999,5.05903 3.85452,0.4818 6.14318,3.49317 2.28866,3.01136 2.04776,6.86598 -0.2409,4.09542 -2.89092,6.74543 -2.65001,2.65002 -6.50453,2.16822 Q 169.2727,315.39119 159.63635,306.598 150,297.8048 150,282.62752 q 0,-15.65908 12.88862,-25.41588 12.88862,-9.7568 35.77503,-11.68411 9.39545,-0.7227 14.09313,-3.01136 4.69777,-2.28866 4.69777,-6.38409 0,-5.30002 -5.05913,-8.31139 -5.05902,-3.01136 -16.62268,-4.69768 -3.85452,-0.4818 -6.14318,-3.61361 -2.28867,-3.13182 -1.80686,-6.98644 0.4818,-4.09542 3.37272,-6.62498 2.89091,-2.52957 6.74553,-2.04767 19.9954,2.89092 29.39085,10.72041 9.39545,7.82959 9.39545,21.56136 0,12.76817 -9.275,19.9955 -9.275,7.22724 -27.34319,8.67265 -15.41818,1.20461 -23.12722,5.66138 -7.70914,4.45687 -7.70914,12.16591 z m 104.79545,28.66825 -39.75001,-39.75001 83.11363,-83.11363 q 4.81822,-4.81822 11.44321,-4.81822 6.62498,0 11.44321,4.81822 l 16.86359,16.86359 Q 362,210.11395 362,216.73893 q 0,6.62499 -4.81822,11.44311 z M 226.85,328.15936 q -4.09542,0.96361 -7.22724,-2.16821 -3.13182,-3.13182 -2.16821,-7.22724 l 7.46814,-36.37729 38.0637,38.0636 z"
        id="path1" style="fill:#ffffff;stroke-width:0.240909" /></svg>
